<?xml version="1.0" encoding="UTF-8" standalone="no" ?>
<!DOCTYPE svg PUBLIC "-//W3C//DTD SVG 1.1//EN" "http://www.w3.org/Graphics/SVG/1.1/DTD/svg11.dtd">
<svg xmlns="http://www.w3.org/2000/svg" xmlns:xlink="http://www.w3.org/1999/xlink" version="1.1" width="1080" height="1080" viewBox="0 0 1080 1080" xml:space="preserve">
<desc>Created with Fabric.js 5.2.4</desc>
<defs>
</defs>
<g transform="matrix(1 0 0 1 540 540)" id="2b769876-c0c7-4f9d-a4a6-a90b3248db13"  >
<rect style="stroke: none; stroke-width: 1; stroke-dasharray: none; stroke-linecap: butt; stroke-dashoffset: 0; stroke-linejoin: miter; stroke-miterlimit: 4; fill: rgb(255,255,255); fill-rule: nonzero; opacity: 1; visibility: hidden;" vector-effect="non-scaling-stroke"  x="-540" y="-540" rx="0" ry="0" width="1080" height="1080" />
</g>
<g transform="matrix(1 0 0 1 540 540)" id="3a041e8e-2897-4033-8cb6-2956b70d6f30"  >
</g>
<g transform="matrix(1 0 0 1 540 540)" id="bf33e3ef-79d2-4db3-9775-d7274aecba74"  >
<path style="stroke: rgb(0,0,0); stroke-width: 0; stroke-dasharray: none; stroke-linecap: butt; stroke-dashoffset: 0; stroke-linejoin: miter; stroke-miterlimit: 4; fill: rgb(0,0,0); fill-rule: nonzero; opacity: 1;" vector-effect="non-scaling-stroke"  transform=" translate(-12, -12)" d="M 23.544 15.993 C 23.582 15.993 23.604 15.976 23.604 15.94 L 23.604 15.904 C 23.604 15.869 23.582 15.852 23.544 15.852 L 23.454 15.852 L 23.454 15.992 z M 23.454 16.255 L 23.333000000000002 16.255 L 23.333000000000002 15.757 L 23.558000000000003 15.757 C 23.67 15.757 23.727000000000004 15.823 23.727000000000004 15.914 C 23.727000000000004 15.993 23.691000000000003 16.043 23.637000000000004 16.064 L 23.748000000000005 16.254 L 23.615000000000006 16.254 L 23.523000000000007 16.084 L 23.453000000000007 16.084 z M 23.888 16.032999999999998 L 23.888 15.970999999999998 C 23.888 15.770999999999999 23.731 15.613999999999999 23.525000000000002 15.613999999999999 C 23.429121852498987 15.611837153516035 23.336447512192244 15.648557842344818 23.2680714392083 15.715803732304234 C 23.199695366224354 15.78304962226365 23.161435312053168 15.875099123045393 23.162000000000003 15.970999999999998 L 23.162000000000003 16.032999999999998 C 23.162000000000003 16.232999999999997 23.318 16.391 23.525000000000002 16.391 C 23.621052879452296 16.393168764338785 23.71388313046719 16.356312283092706 23.782289568735894 16.28884808226572 C 23.850696007004597 16.221383881438733 23.888836402347298 16.129073719720573 23.888 16.032999999999998 z M 23.05 16.002999999999997 C 23.05 15.722999999999997 23.262 15.510999999999996 23.525000000000002 15.510999999999996 C 23.789 15.510999999999996 24.000000000000004 15.723999999999995 24.000000000000004 16.001999999999995 C 24.000000000000004 16.280999999999995 23.789000000000005 16.492999999999995 23.525000000000002 16.492999999999995 C 23.39655406843071 16.49250917589139 23.273734367974487 16.440236770532508 23.18433131334851 16.348010461549915 C 23.094928258722526 16.255784152567323 23.0464984137916 16.13139913215841 23.05 16.002999999999997 z M 16.21 8.13 L 15.994000000000002 7.506000000000001 L 12.434000000000001 7.506000000000001 L 12.434000000000001 8.13 z M 16.623 9.32 L 16.407 8.697000000000001 L 12.434000000000001 8.697000000000001 L 12.434000000000001 9.321000000000002 z M 19.273 16.467 L 22.38 16.467 L 22.38 15.842999999999998 L 19.272 15.842999999999998 z M 19.273 15.274999999999999 L 22.38 15.274999999999999 L 22.38 14.652 L 19.272 14.652 z M 19.273 14.084999999999999 L 21.137 14.084999999999999 L 21.137 13.460999999999999 L 19.272000000000002 13.460999999999999 z M 19.273 12.893999999999998 L 21.137 12.893999999999998 L 21.137 12.269999999999998 L 19.272000000000002 12.269999999999998 z M 19.273 11.702999999999998 L 21.137 11.702999999999998 L 21.137 11.078999999999997 L 17.582 11.078999999999997 L 17.407 11.582999999999997 L 17.232 11.078999999999997 L 13.677 11.078999999999997 L 13.677 11.702999999999998 L 15.542 11.702999999999998 L 15.542 11.128999999999998 L 15.741999999999999 11.702999999999998 L 19.072 11.702999999999998 L 19.272 11.128999999999998 z M 21.137 9.887999999999998 L 17.995 9.887999999999998 L 17.778000000000002 10.511999999999999 L 21.137 10.511999999999999 z M 13.677 12.893999999999998 L 15.542 12.893999999999998 L 15.542 12.269999999999998 L 13.677 12.269999999999998 z M 13.677 14.083999999999998 L 15.542 14.083999999999998 L 15.542 13.460999999999999 L 13.677 13.460999999999999 z M 12.434 15.274999999999999 L 15.542 15.274999999999999 L 15.542 14.652 L 12.434 14.652 z M 12.434 16.467 L 15.542 16.467 L 15.542 15.842999999999998 L 12.434 15.842999999999998 z M 18.82 7.5059999999999985 L 18.604 8.129999999999999 L 22.38 8.129999999999999 L 22.38 7.505999999999999 z M 18.191 9.320999999999998 L 22.381 9.320999999999998 L 22.381 8.696999999999997 L 18.407 8.696999999999997 z M 13.677 10.510999999999997 L 17.036 10.510999999999997 L 16.82 9.887999999999998 L 13.677 9.887999999999998 z M 16.159 12.893999999999998 L 18.654999999999998 12.893999999999998 L 18.872999999999998 12.269999999999998 L 15.940999999999997 12.269999999999998 z M 16.576 14.083999999999998 L 18.238 14.083999999999998 L 18.456 13.460999999999999 L 16.358 13.460999999999999 z M 16.992 15.274999999999999 L 17.822 15.274999999999999 L 18.04 14.652 L 16.774 14.652 z M 17.406000000000002 16.467 L 17.623 15.842999999999998 L 17.191000000000003 15.842999999999998 z M 4.9730000000000025 16.461 L 9.551000000000002 16.467 C 10.173000000000002 16.467 10.731000000000002 16.23 11.153000000000002 15.842999999999998 L 4.9730000000000025 15.842999999999998 z M 9.833000000000002 13.460999999999999 L 9.833000000000002 14.084999999999999 L 11.925000000000002 14.084999999999999 C 11.925000000000002 13.869 11.895000000000003 13.659999999999998 11.842000000000002 13.460999999999999 z M 6.217000000000002 14.084999999999999 L 8.082000000000003 14.084999999999999 L 8.082000000000003 13.460999999999999 L 6.217 13.460999999999999 z M 9.834000000000003 10.511999999999999 L 11.842000000000002 10.511999999999999 C 11.895000000000003 10.312999999999999 11.925000000000002 10.104 11.925000000000002 9.887999999999998 L 9.834 9.887999999999998 z M 6.217000000000003 10.511999999999999 L 8.082000000000003 10.511999999999999 L 8.082000000000003 9.887999999999998 L 6.217 9.887999999999998 z M 9.55 7.507 L 4.973 7.507 L 4.973 8.131 L 11.152999999999999 8.131 C 10.716452480975143 7.728972914537887 10.144463422887933 7.5061756784290115 9.550999999999997 7.507000000000001 z M 11.606000000000002 8.698 L 4.973 8.698 L 4.973 9.322000000000001 L 11.857 9.322000000000001 C 11.8035827402697 9.103228020780914 11.719411452090293 8.893136485485115 11.607 8.698 z M 6.216000000000002 11.08 L 6.216000000000002 11.704 L 11.086000000000002 11.704 C 11.293000000000003 11.528 11.468000000000002 11.317 11.605000000000002 11.08 z M 11.086000000000002 12.271 L 6.216000000000002 12.271 L 6.216000000000002 12.895000000000001 L 11.605000000000002 12.895000000000001 C 11.468841155127851 12.65893162290279 11.293310682258713 12.447889204655503 11.086000000000002 12.271 z M 4.972000000000002 15.277000000000001 L 11.606000000000002 15.277000000000001 C 11.716000000000001 15.084000000000001 11.802000000000001 14.875000000000002 11.856000000000002 14.653 L 4.973 14.653 z M 0 8.13 L 4.352 8.13 L 4.352 7.506000000000001 L 0 7.506000000000001 z M 0 9.321000000000002 L 4.352 9.321000000000002 L 4.352 8.697000000000001 L 0 8.697000000000001 z M 1.243 10.512000000000002 L 3.108 10.512000000000002 L 3.108 9.888000000000002 L 1.243 9.888000000000002 z M 1.243 11.703000000000003 L 3.108 11.703000000000003 L 3.108 11.079000000000002 L 1.243 11.079000000000002 z M 1.243 12.893000000000002 L 3.108 12.893000000000002 L 3.108 12.270000000000003 L 1.243 12.270000000000003 z M 1.243 14.085000000000003 L 3.108 14.085000000000003 L 3.108 13.461000000000002 L 1.243 13.461000000000002 z M 0 15.276 L 4.352 15.276 L 4.352 14.653 L 0 14.653 z M 0 16.468 L 4.352 16.468 L 4.352 15.844 L 0 15.844 Z" stroke-linecap="round" />
</g>
</svg>